HIERARCHY
ROOT Hips
{
	OFFSET 0.000000 97.167313 0.000000
	CHANNELS 6 Xposition Yposition Zposition Xrotation Yrotation Zrotation
	JOINT Spine
	{
		OFFSET 0.000000 13.784798 0.064400
		CHANNELS 3 Xrotation Yrotation Zrotation
		JOINT Spine1
		{
			OFFSET 0.000000 12.037903 0.404700
			CHANNELS 3 Xrotation Yrotation Zrotation
			JOINT Spine2
			{
				OFFSET 0.000000 17.795601 0.420200
				CHANNELS 3 Xrotation Yrotation Zrotation
				JOINT Neck
				{
					OFFSET 0.000000 39.131302 11.954600
					CHANNELS 3 Xrotation Yrotation Zrotation
					JOINT Head
					{
						OFFSET 0.000000 14.456192 15.627699
						CHANNELS 3 Xrotation Yrotation Zrotation
						JOINT HeadTop_End
						{
							OFFSET 0.000000 15.703506 7.603401
							CHANNELS 3 Xrotation Yrotation Zrotation
							End Site
							{
								OFFSET 0.000000 17.447403 0.000000
							}
						}
					}
				}
				JOINT LeftShoulder
				{
					OFFSET 17.399500 24.608795 1.168800
					CHANNELS 3 Xrotation Yrotation Zrotation
					JOINT LeftArm
					{
						OFFSET 18.980635 5.765305 1.818600
						CHANNELS 3 Xrotation Yrotation Zrotation
						JOINT LeftForeArm
						{
							OFFSET 49.290169 0.000000 0.000000
							CHANNELS 3 Xrotation Yrotation Zrotation
							JOINT LeftHand
							{
								OFFSET 31.562012 0.000000 0.000000
								CHANNELS 3 Xrotation Yrotation Zrotation
								JOINT LeftHandThumb1
								{
									OFFSET 6.133995 -4.388519 7.076070
									CHANNELS 3 Xrotation Yrotation Zrotation
									JOINT LeftHandThumb2
									{
										OFFSET 6.037666 -3.485840 3.485847
										CHANNELS 3 Xrotation Yrotation Zrotation
										JOINT LeftHandThumb3
										{
											OFFSET 6.496506 -3.750763 3.750761
											CHANNELS 3 Xrotation Yrotation Zrotation
											JOINT LeftHandThumb4
											{
												OFFSET 5.616882 -3.242905 3.242910
												CHANNELS 3 Xrotation Yrotation Zrotation
												End Site
												{
													OFFSET -1.254608 7.132141 0.375429
												}
											}
										}
									}
								}
								JOINT LeftHandPinky1
								{
									OFFSET 18.920792 -0.453171 -11.426712
									CHANNELS 3 Xrotation Yrotation Zrotation
									JOINT LeftHandPinky2
									{
										OFFSET 4.919586 0.000000 0.000000
										CHANNELS 3 Xrotation Yrotation Zrotation
										JOINT LeftHandPinky3
										{
											OFFSET 5.233047 0.000000 0.000000
											CHANNELS 3 Xrotation Yrotation Zrotation
											JOINT LeftHandPinky4
											{
												OFFSET 5.571716 0.000000 0.000000
												CHANNELS 3 Xrotation Yrotation Zrotation
												End Site
												{
													OFFSET -3.459808 4.342407 -0.466164
												}
											}
										}
									}
								}
								JOINT LeftHandRing1
								{
									OFFSET 22.726120 -0.094986 -6.500475
									CHANNELS 3 Xrotation Yrotation Zrotation
									JOINT LeftHandRing2
									{
										OFFSET 6.408615 0.000000 0.000000
										CHANNELS 3 Xrotation Yrotation Zrotation
										JOINT LeftHandRing3
										{
											OFFSET 6.150223 0.000000 0.000000
											CHANNELS 3 Xrotation Yrotation Zrotation
											JOINT LeftHandRing4
											{
												OFFSET 6.145386 0.000000 0.000000
												CHANNELS 3 Xrotation Yrotation Zrotation
												End Site
												{
													OFFSET -3.671402 4.923981 -0.202372
												}
											}
										}
									}
								}
								JOINT LeftHandMiddle1
								{
									OFFSET 23.373947 0.000000 0.000001
									CHANNELS 3 Xrotation Yrotation Zrotation
									JOINT LeftHandMiddle2
									{
										OFFSET 6.996567 0.000000 0.000000
										CHANNELS 3 Xrotation Yrotation Zrotation
										JOINT LeftHandMiddle3
										{
											OFFSET 7.015945 0.000000 0.000000
											CHANNELS 3 Xrotation Yrotation Zrotation
											JOINT LeftHandMiddle4
											{
												OFFSET 7.721573 0.000000 0.000000
												CHANNELS 3 Xrotation Yrotation Zrotation
												End Site
												{
													OFFSET -4.651108 6.158463 0.251582
												}
											}
										}
									}
								}
								JOINT LeftHandIndex1
								{
									OFFSET 21.310577 -0.490082 6.209344
									CHANNELS 3 Xrotation Yrotation Zrotation
									JOINT LeftHandIndex2
									{
										OFFSET 7.536453 0.000000 0.000000
										CHANNELS 3 Xrotation Yrotation Zrotation
										JOINT LeftHandIndex3
										{
											OFFSET 7.512344 0.000000 0.000000
											CHANNELS 3 Xrotation Yrotation Zrotation
											JOINT LeftHandIndex4
											{
												OFFSET 10.212402 0.000000 0.000001
												CHANNELS 3 Xrotation Yrotation Zrotation
												End Site
												{
													OFFSET -5.180801 8.690506 1.388433
												}
											}
										}
									}
								}
							}
						}
					}
				}
				JOINT RightShoulder
				{
					OFFSET -17.399500 24.608795 1.168800
					CHANNELS 3 Xrotation Yrotation Zrotation
					JOINT RightArm
					{
						OFFSET -18.980635 5.765305 1.818600
						CHANNELS 3 Xrotation Yrotation Zrotation
						JOINT RightForeArm
						{
							OFFSET -49.290169 0.000000 0.000000
							CHANNELS 3 Xrotation Yrotation Zrotation
							JOINT RightHand
							{
								OFFSET -31.562012 0.000000 0.000000
								CHANNELS 3 Xrotation Yrotation Zrotation
								JOINT RightHandThumb1
								{
									OFFSET -6.133995 -4.388519 7.076070
									CHANNELS 3 Xrotation Yrotation Zrotation
									JOINT RightHandThumb2
									{
										OFFSET -6.037666 -3.485840 3.485847
										CHANNELS 3 Xrotation Yrotation Zrotation
										JOINT RightHandThumb3
										{
											OFFSET -6.496506 -3.750763 3.750761
											CHANNELS 3 Xrotation Yrotation Zrotation
											JOINT RightHandThumb4
											{
												OFFSET -5.616882 -3.242905 3.242910
												CHANNELS 3 Xrotation Yrotation Zrotation
												End Site
												{
													OFFSET 1.254608 7.132141 0.375429
												}
											}
										}
									}
								}
								JOINT RightHandIndex1
								{
									OFFSET -21.310577 -0.490082 6.209344
									CHANNELS 3 Xrotation Yrotation Zrotation
									JOINT RightHandIndex2
									{
										OFFSET -7.536453 0.000000 0.000000
										CHANNELS 3 Xrotation Yrotation Zrotation
										JOINT RightHandIndex3
										{
											OFFSET -7.512344 0.000000 0.000000
											CHANNELS 3 Xrotation Yrotation Zrotation
											JOINT RightHandIndex4
											{
												OFFSET -10.212402 0.000000 0.000001
												CHANNELS 3 Xrotation Yrotation Zrotation
												End Site
												{
													OFFSET 5.180801 8.690506 1.388433
												}
											}
										}
									}
								}
								JOINT RightHandMiddle1
								{
									OFFSET -23.373947 0.000000 0.000001
									CHANNELS 3 Xrotation Yrotation Zrotation
									JOINT RightHandMiddle2
									{
										OFFSET -6.996567 0.000000 0.000000
										CHANNELS 3 Xrotation Yrotation Zrotation
										JOINT RightHandMiddle3
										{
											OFFSET -7.015945 0.000000 0.000000
											CHANNELS 3 Xrotation Yrotation Zrotation
											JOINT RightHandMiddle4
											{
												OFFSET -7.721573 0.000000 0.000000
												CHANNELS 3 Xrotation Yrotation Zrotation
												End Site
												{
													OFFSET 4.651108 6.158463 0.251582
												}
											}
										}
									}
								}
								JOINT RightHandRing1
								{
									OFFSET -22.726120 -0.094986 -6.500475
									CHANNELS 3 Xrotation Yrotation Zrotation
									JOINT RightHandRing2
									{
										OFFSET -6.408615 0.000000 0.000000
										CHANNELS 3 Xrotation Yrotation Zrotation
										JOINT RightHandRing3
										{
											OFFSET -6.150223 0.000000 0.000000
											CHANNELS 3 Xrotation Yrotation Zrotation
											JOINT RightHandRing4
											{
												OFFSET -6.145386 0.000000 0.000000
												CHANNELS 3 Xrotation Yrotation Zrotation
												End Site
												{
													OFFSET 3.671402 4.923981 -0.202372
												}
											}
										}
									}
								}
								JOINT RightHandPinky1
								{
									OFFSET -18.920792 -0.453171 -11.426712
									CHANNELS 3 Xrotation Yrotation Zrotation
									JOINT RightHandPinky2
									{
										OFFSET -4.919586 0.000000 0.000000
										CHANNELS 3 Xrotation Yrotation Zrotation
										JOINT RightHandPinky3
										{
											OFFSET -5.233047 0.000000 0.000000
											CHANNELS 3 Xrotation Yrotation Zrotation
											JOINT RightHandPinky4
											{
												OFFSET -5.571716 0.000000 0.000000
												CHANNELS 3 Xrotation Yrotation Zrotation
												End Site
												{
													OFFSET 3.459808 4.342407 -0.466164
												}
											}
										}
									}
								}
							}
						}
					}
				}
			}
		}
	}
	JOINT LeftUpLeg
	{
		OFFSET 19.899099 -7.885101 -3.429500
		CHANNELS 3 Xrotation Yrotation Zrotation
		JOINT LeftLeg
		{
			OFFSET 1.745560 -36.997807 10.304700
			CHANNELS 3 Xrotation Yrotation Zrotation
			JOINT LeftFoot
			{
				OFFSET -1.745558 -29.803308 -13.615400
				CHANNELS 3 Xrotation Yrotation Zrotation
				JOINT LeftToeBase
				{
					OFFSET 1.181900 -18.539904 15.226099
					CHANNELS 3 Xrotation Yrotation Zrotation
					JOINT LeftToe_End
					{
						OFFSET -0.863701 1.402801 16.534700
						CHANNELS 3 Xrotation Yrotation Zrotation
						End Site
						{
							OFFSET 0.000000 16.616566 0.000000
						}
					}
				}
			}
		}
	}
	JOINT RightUpLeg
	{
		OFFSET -19.899099 -7.885101 -3.429500
		CHANNELS 3 Xrotation Yrotation Zrotation
		JOINT RightLeg
		{
			OFFSET -1.745560 -36.997807 10.304700
			CHANNELS 3 Xrotation Yrotation Zrotation
			JOINT RightFoot
			{
				OFFSET 1.745558 -29.803308 -13.615400
				CHANNELS 3 Xrotation Yrotation Zrotation
				JOINT RightToeBase
				{
					OFFSET -1.181900 -18.539904 15.226099
					CHANNELS 3 Xrotation Yrotation Zrotation
					JOINT RightToe_End
					{
						OFFSET 0.863701 1.402801 16.534700
						CHANNELS 3 Xrotation Yrotation Zrotation
						End Site
						{
							OFFSET 0.000000 16.616566 0.000000
						}
					}
				}
			}
		}
	}
}
MOTION
Frames: 6
Frame Time: 0.033333
0.580039 50.562851 20.949425 0.146340 0.050722 0.851363 10.430405 0.145893 -1.478084 -0.199079 0.213325 -0.355470 -0.199400 0.248526 -0.300888 -1.001771 -1.284342 0.469464 -8.883493 -4.327061 -5.321560 -0.000000 0.000000 0.000000 0.823529 -15.262001 -7.868725 4.746628 -21.216378 -54.862060 -0.000046 -62.197950 -0.000065 31.063082 4.315363 41.770421 6.610624 1.798240 20.801488 2.715413 20.171091 -24.389101 -5.531608 29.847162 5.070948 0.000001 -0.000003 -0.000001 2.042347 10.867330 -13.918324 0.168512 1.396409 -13.761334 0.107151 1.116580 -10.963882 -0.000000 0.000002 -0.000005 1.797274 9.808297 -14.183106 0.205938 1.541166 -15.221148 0.265328 1.744720 -17.292067 0.000000 0.000000 -0.000000 1.299128 7.334335 -16.510912 0.329958 1.940060 -19.301910 0.233127 1.637752 -16.201248 -0.000000 -0.000003 0.000008 -0.235314 2.798368 -26.913104 0.396817 2.121301 -21.189301 0.083134 0.984454 -9.653129 0.000001 0.000003 0.000001 3.171102 -4.378748 8.782863 -3.950425 37.253382 63.733629 0.000011 55.138222 0.000006 43.537439 4.741019 -36.278178 -9.383503 -1.613354 -17.604712 3.557113 -24.337028 34.656827 -6.608503 -37.497298 -11.176191 -0.000000 -0.000003 0.000004 2.957835 1.012852 13.529990 0.472458 -2.045698 26.006744 0.059753 -0.744427 9.177786 0.000001 -0.000003 -0.000001 0.105532 -3.665065 2.525351 0.585006 -2.261696 29.000573 0.020456 -0.436582 5.367134 -0.000002 -0.000000 -0.000004 0.456428 -7.644504 4.305696 0.107471 -0.995753 12.319230 0.072399 -0.818799 10.104480 0.000001 -0.000000 -0.000002 -11.162324 -10.227908 7.169819 0.029111 -0.520526 6.403068 0.028672 -0.516326 6.351258 -0.000003 0.000002 0.000004 -86.374641 -12.021655 20.549089 80.423005 -2.938842 -4.287125 8.678449 -5.932099 -9.532600 -0.103111 -0.000001 0.000000 0.000000 0.000001 -0.000000 -88.135661 13.647610 -16.493502 81.377476 3.366969 2.590721 9.658870 -0.969154 10.702156 -0.191622 -0.000003 -0.000004 0.000000 -0.000001 0.000000 
0.646218 50.568207 20.933109 0.310016 0.156885 0.856626 10.489160 0.263193 -1.400108 -0.082535 0.416373 -0.129186 -0.081635 0.449914 -0.073955 -1.336684 -1.350563 0.435157 -9.288079 -4.727385 -5.139297 0.000000 -0.000001 0.000000 0.789609 -14.331731 -7.857069 4.598888 -23.250541 -54.680422 0.000026 -61.940581 0.000004 30.864956 4.195767 41.450878 6.798332 1.954774 20.649368 2.736162 20.177499 -24.455067 -5.424890 30.068327 5.038559 -0.000000 0.000003 0.000000 2.066300 10.893684 -14.048630 0.172687 1.413322 -13.931231 0.105951 1.110319 -10.901884 -0.000001 0.000000 -0.000006 1.824281 9.845094 -14.338000 0.207527 1.546969 -15.279895 0.268343 1.754427 -17.391345 0.000000 0.000002 -0.000002 1.336048 7.406824 -16.744948 0.329973 1.940134 -19.302572 0.233139 1.637846 -16.201876 0.000001 -0.000002 0.000006 -0.293620 2.946556 -27.132879 0.406594 2.146245 -21.451543 0.081966 0.977691 -9.585965 0.000002 -0.000001 0.000001 3.138337 -4.543555 8.423393 -2.339957 37.696985 61.836838 0.000015 56.636014 0.000013 42.726532 4.729131 -35.030326 -8.923409 0.878772 -19.208994 7.122279 -23.637924 34.602076 -3.512794 -35.279976 -9.904121 0.000001 0.000002 0.000001 3.899414 2.025978 12.782524 0.347148 -1.766003 22.239965 0.070202 -0.806455 9.950328 0.000001 0.000000 -0.000001 0.078761 -3.365201 1.697402 0.475831 -2.052614 26.101069 0.027508 -0.505900 6.222710 0.000000 0.000001 -0.000008 0.400467 -7.542158 3.753008 0.101714 -0.969019 11.983569 0.070125 -0.805962 9.944370 -0.000002 0.000001 -0.000001 -10.482413 -9.975704 6.428066 0.020138 -0.433103 5.324410 0.041202 -0.618770 7.618297 -0.000001 0.000001 0.000004 -86.621292 -11.917679 20.366055 80.350905 -2.865665 -4.276089 8.788077 -5.939333 -9.426032 -0.103111 -0.000003 0.000000 -0.000000 0.000000 0.000000 -88.202522 13.777764 -16.623755 81.319331 3.369264 2.596528 9.678552 -0.964299 10.836542 -0.191621 -0.000004 -0.000004 0.000000 -0.000001 -0.000000 
0.742811 50.571884 20.933424 0.578924 0.429557 0.910435 10.564981 0.442853 -1.244589 0.065106 0.662932 0.211092 0.067069 0.695069 0.267272 -1.672380 -1.441680 0.313567 -10.068551 -5.352533 -4.948774 0.000000 -0.000000 0.000000 0.761081 -13.569933 -7.967515 4.684505 -25.578112 -54.316868 0.000017 -61.766767 0.000001 30.802377 3.777749 41.466116 7.171028 2.262642 20.345648 2.780669 20.188953 -24.585713 -5.210137 30.506869 4.971559 -0.000001 0.000003 -0.000003 2.114141 10.944603 -14.309549 0.181133 1.446962 -14.269914 0.103636 1.098201 -10.781351 0.000000 0.000002 -0.000002 1.878438 9.917289 -14.647348 0.210705 1.558599 -15.397420 0.274416 1.773660 -17.588560 -0.000000 -0.000001 0.000005 1.410756 7.549539 -17.210537 0.330402 1.941339 -19.315311 0.233338 1.638509 -16.208850 -0.000001 -0.000002 0.000008 -0.263663 3.167325 -27.580207 0.426211 2.195535 -21.969503 0.079735 0.964308 -9.453869 -0.000000 0.000001 0.000002 3.084616 -4.735477 7.906383 -0.877271 37.794230 59.777536 0.000025 58.452199 -0.000030 41.368960 4.524308 -33.380347 -8.314468 3.583776 -21.067968 10.892220 -22.797705 34.141295 -0.246946 -32.768406 -8.790739 0.000002 -0.000001 -0.000001 4.965216 3.117501 11.892111 0.228963 -1.443723 18.021937 0.081893 -0.870460 10.749026 -0.000000 -0.000002 0.000004 0.056463 -3.042094 0.627194 0.368639 -1.817666 22.927579 0.034761 -0.568678 6.998211 0.000002 -0.000001 -0.000004 0.328988 -7.464106 2.982716 0.094005 -0.932031 11.519593 0.066326 -0.783970 9.670253 0.000001 -0.000000 0.000000 -9.729338 -9.705400 5.464383 0.011190 -0.323066 3.969040 0.056211 -0.722160 8.901281 -0.000001 -0.000001 0.000004 -87.040748 -11.675124 19.981783 80.199535 -2.760218 -4.242288 8.986208 -5.957032 -9.231892 -0.103111 -0.000002 -0.000000 0.000000 0.000000 -0.000000 -88.276998 14.080134 -16.941328 81.337130 3.386813 2.629916 9.597653 -0.971486 11.086133 -0.191621 -0.000002 -0.000004 -0.000000 -0.000000 -0.000000 
0.843101 50.576645 20.961071 0.946338 0.828987 0.993099 10.659061 0.673280 -1.041743 0.244963 0.945923 0.599446 0.247662 0.977241 0.656893 -1.959379 -1.560868 0.237589 -11.117703 -6.091836 -4.600711 0.000000 0.000000 -0.000000 0.744748 -13.125931 -8.095985 4.939172 -27.780959 -53.805983 -0.000011 -61.726872 -0.000026 30.892587 3.026884 41.873277 7.633735 2.634304 19.973546 2.833358 20.202369 -24.744835 -4.944727 31.037650 4.884848 0.000001 0.000001 0.000000 2.171018 11.007883 -14.623064 0.191428 1.486821 -14.672090 0.100711 1.082755 -10.627756 0.000001 0.000001 -0.000000 1.945049 10.006518 -15.017655 0.214531 1.572342 -15.537149 0.281851 1.796990 -17.827577 0.000002 0.000000 0.000005 1.504366 7.722821 -17.772465 0.330232 1.940885 -19.310470 0.233235 1.638163 -16.205331 -0.000002 -0.000003 0.000006 -0.161630 3.403992 -28.129618 0.450451 2.254622 -22.593654 0.077020 0.947785 -9.290370 0.000000 -0.000001 0.000003 3.022157 -4.922146 7.361110 0.146668 37.528078 57.883900 0.000034 60.605853 -0.000030 39.183819 3.864762 -31.093866 -7.549102 6.355167 -23.128035 14.628682 -21.872030 33.193726 3.016875 -30.105220 -7.934381 -0.000000 -0.000002 0.000001 6.114174 4.224627 10.907247 0.130622 -1.096425 13.587638 0.094708 -0.935372 11.561678 -0.000001 -0.000003 -0.000002 0.043863 -2.707762 -0.556837 0.270987 -1.566961 19.621452 0.042501 -0.628482 7.738775 -0.000002 0.000000 -0.000004 0.250624 -7.396233 2.110847 0.085687 -0.890166 10.995702 0.061916 -0.757703 9.343163 -0.000001 -0.000001 -0.000000 -8.940162 -9.444050 4.393116 0.004391 -0.202333 2.484649 0.073690 -0.826061 10.194699 -0.000001 -0.000001 0.000000 -87.582908 -11.346550 19.472480 79.987471 -2.646627 -4.193045 9.233288 -5.979740 -8.999592 -0.103111 -0.000002 0.000000 -0.000000 0.000001 0.000000 -88.361365 14.502092 -17.389124 81.435526 3.404293 2.687919 9.406426 -0.992213 11.407439 -0.191622 -0.000004 -0.000004 -0.000000 0.000000 0.000000 
0.913093 50.576492 21.026608 1.398687 1.275057 1.097320 10.753936 0.909955 -0.845066 0.423177 1.222277 0.943821 0.426263 1.253414 1.002676 -2.126774 -1.693483 0.346825 -12.057423 -6.751943 -3.920080 0.000000 -0.000000 -0.000000 0.734247 -12.924279 -8.119021 5.177096 -29.497418 -53.380275 0.000031 -61.930015 0.000021 30.740926 2.225415 42.321785 8.038491 2.942854 19.659216 2.874779 20.212330 -24.879319 -4.715859 31.480868 4.805450 0.000001 0.000005 -0.000001 2.194916 11.069379 -14.879306 0.199889 1.518749 -14.994637 0.098091 1.068706 -10.488444 0.000001 0.000004 -0.000002 2.001752 10.084293 -15.320444 0.217616 1.583480 -15.649963 0.288173 1.816457 -18.027376 -0.000000 0.000001 -0.000002 1.585488 7.869121 -18.238601 0.328841 1.936909 -19.269449 0.232577 1.635900 -16.182205 0.000000 0.000000 0.000004 -0.037099 3.584321 -28.595926 0.471010 2.303344 -23.110546 0.074695 0.933469 -9.148717 -0.000000 0.000001 0.000001 2.966081 -5.032571 6.922941 0.599691 37.081572 56.426170 0.000068 62.852152 -0.000050 36.357264 2.719782 -28.301488 -6.664914 8.981309 -25.258955 18.013552 -20.941860 31.800387 6.054693 -27.518308 -7.382836 -0.000000 -0.000002 0.000001 7.265976 5.262770 9.919369 0.061432 -0.754764 9.306356 0.108307 -0.999590 12.367679 -0.000000 -0.000003 -0.000002 0.043288 -2.381052 -1.655627 0.190023 -1.318098 16.406663 0.051401 -0.690757 8.511180 -0.000002 0.000001 -0.000008 0.179707 -7.318175 1.316653 0.078421 -0.851936 10.517590 0.058189 -0.734701 9.057020 -0.000002 0.000001 -0.000003 -8.174375 -9.218385 3.393689 0.000963 -0.095243 1.169119 0.093486 -0.929382 11.486755 -0.000005 -0.000001 0.000004 -88.174457 -11.014355 18.950638 79.752868 -2.561730 -4.137818 9.464809 -6.002996 -8.810199 -0.103111 -0.000003 0.000000 -0.000000 0.000000 -0.000000 -88.505441 14.966910 -17.864315 81.618418 3.411114 2.764464 9.127139 -1.025961 11.727194 -0.191621 -0.000003 -0.000004 0.000000 0.000000 0.000000 
0.920621 50.572823 21.127186 1.912555 1.679200 1.277283 10.837497 1.105611 -0.700669 0.577573 1.445685 1.174626 0.580762 1.477106 1.234808 -2.140594 -1.832682 0.715850 -12.444087 -7.212911 -2.922020 0.000000 0.000000 -0.000000 0.720657 -12.675871 -8.081750 5.189885 -30.593114 -53.262259 0.000025 -62.370310 0.000024 30.038199 1.676507 42.355089 8.229969 3.078207 19.513453 2.893365 20.216201 -24.940538 -4.604109 31.686760 4.763427 -0.000001 0.000003 0.000001 2.231698 11.089849 -15.002010 0.204151 1.534594 -15.154672 0.097005 1.062756 -10.429356 0.000000 0.000001 -0.000000 2.028672 10.120204 -15.464421 0.219136 1.588861 -15.704367 0.291104 1.825470 -18.120123 -0.000003 -0.000002 0.000005 1.623737 7.935939 -18.456790 0.328351 1.935573 -19.255299 0.232417 1.635343 -16.176547 0.000000 -0.000000 0.000008 -0.019838 3.687796 -28.806664 0.480846 2.326274 -23.354529 0.073656 0.927080 -9.085551 -0.000001 0.000000 0.000006 2.930815 -4.938798 6.701614 0.533864 36.626575 55.432251 -0.000041 64.679064 0.000067 33.798204 1.506215 -25.599435 -5.751224 11.254274 -27.278894 20.762827 -20.088324 30.150651 8.647520 -25.243623 -7.106206 0.000000 -0.000006 0.000001 8.321774 6.154358 9.036413 0.022020 -0.452818 5.567436 0.122198 -1.060944 13.140194 -0.000000 0.000000 0.000001 0.052344 -2.082228 -2.469079 0.129406 -1.091364 13.524035 0.062319 -0.760120 9.373322 -0.000002 0.000000 -0.000009 0.131340 -7.211519 0.778788 0.073616 -0.825680 10.190071 0.056262 -0.722385 8.904235 0.000000 -0.000002 -0.000005 -7.495712 -9.044103 2.647974 0.000059 -0.023777 0.291701 0.115176 -1.030389 12.755177 -0.000003 -0.000002 0.000002 -88.689528 -10.718573 18.503466 79.509597 -2.485540 -4.095511 9.605006 -6.019908 -8.761330 -0.103111 -0.000002 0.000000 -0.000000 0.000001 0.000000 -88.798162 15.429824 -18.273951 81.875875 3.419848 2.839414 8.827908 -1.064239 11.947259 -0.191622 -0.000003 -0.000004 0.000000 0.000000 0.000000 
